<?xml version="1.0" standalone="no"?>
<!DOCTYPE svg PUBLIC "-//W3C//DTD SVG 20010904//EN"
 "http://www.w3.org/TR/2001/REC-SVG-20010904/DTD/svg10.dtd">
<svg version="1.0" xmlns="http://www.w3.org/2000/svg"
 width="126.000000pt" height="126.000000pt" viewBox="0 0 126.000000 126.000000"
 preserveAspectRatio="xMidYMid meet">
<metadata>
Created by potrace 1.11, written by Peter Selinger 2001-2013
</metadata>
<g transform="translate(0.000000,126.000000) scale(0.100000,-0.100000)"
fill="#000000" stroke="none">
<path d="M38 1203 c-8 -10 -6 -13 8 -14 81 -3 95 -15 148 -136 27 -59 51 -110
53 -113 11 -12 20 26 11 49 -5 14 -16 50 -24 80 -12 48 -12 57 3 82 17 28 39
39 81 39 26 0 30 20 5 21 -171 5 -276 2 -285 -8z"/>
<path d="M875 1200 c-3 -5 -1 -11 4 -11 6 -1 16 -3 21 -4 6 -1 16 -3 23 -4 7
0 24 -11 36 -22 19 -17 22 -29 18 -58 -4 -30 -154 -393 -235 -571 -73 -159
-162 -366 -162 -376 0 -25 42 -109 48 -94 2 8 15 38 27 65 22 47 55 122 296
673 50 114 101 230 113 258 28 60 86 120 127 129 16 4 29 11 29 16 0 13 -337
12 -345 -1z"/>
<path d="M625 949 c-33 -3 -52 -6 -43 -7 9 -1 23 -9 32 -17 17 -17 12 -41 -26
-120 -14 -27 -47 -101 -74 -162 -27 -62 -51 -113 -54 -113 -3 0 -11 15 -19 33
-50 119 -62 140 -73 129 -8 -8 1 -40 36 -124 25 -62 50 -119 55 -127 10 -16
23 10 126 255 83 198 102 231 134 242 l26 9 -30 4 c-16 2 -57 1 -90 -2z"/>
</g>
</svg>
